<?xml version="1.0" standalone="no"?>
<!DOCTYPE svg PUBLIC "-//W3C//DTD SVG 20010904//EN"
 "http://www.w3.org/TR/2001/REC-SVG-20010904/DTD/svg10.dtd">
<svg version="1.0" xmlns="http://www.w3.org/2000/svg"
 width="399.000000pt" height="399.000000pt" viewBox="0 0 399.000000 399.000000"
 preserveAspectRatio="xMidYMid meet">
<metadata>
Created by potrace 1.11, written by Peter Selinger 2001-2013
</metadata>
<g transform="translate(0.000000,399.000000) scale(0.100000,-0.100000)"
fill="#000000" stroke="none">
<path d="M1888 3875 c-2 -1 -37 -5 -79 -8 -42 -4 -111 -14 -155 -23 -43 -9
-87 -17 -96 -19 -47 -9 -172 -48 -239 -74 -453 -175 -823 -519 -1031 -959 -81
-170 -146 -389 -163 -542 -3 -30 -7 -71 -10 -90 -6 -46 -6 -315 0 -360 3 -19
7 -55 10 -80 3 -25 10 -61 15 -80 5 -19 11 -48 13 -65 14 -95 89 -308 154
-438 208 -417 587 -757 1023 -920 95 -35 273 -85 333 -93 18 -2 48 -6 67 -9
341 -53 743 7 1065 157 397 186 716 502 904 894 98 204 159 421 177 628 36
395 -41 772 -223 1101 -56 102 -62 112 -95 156 -16 20 -28 41 -28 47 0 6 -3
12 -8 14 -4 2 -25 26 -47 53 -215 271 -542 501 -869 610 -111 38 -293 79 -396
90 -62 7 -316 15 -322 10z m347 -291 c237 -36 453 -119 655 -252 47 -31 87
-58 90 -62 3 -3 30 -25 60 -50 232 -190 414 -468 506 -773 20 -67 29 -107 49
-212 16 -86 21 -310 9 -428 -18 -184 -93 -423 -181 -580 -18 -33 -33 -61 -33
-63 0 -4 -111 -167 -119 -174 -3 -3 -23 -26 -43 -51 -48 -60 -160 -168 -234
-225 -281 -219 -631 -342 -979 -345 -109 -1 -222 9 -305 26 -14 3 -40 8 -59
11 -100 17 -309 95 -429 161 -455 250 -775 721 -830 1223 -9 83 -9 317 0 395
54 460 327 897 723 1156 167 109 420 210 590 235 17 3 36 7 44 10 8 2 59 7
115 11 56 3 102 6 103 8 8 6 182 -8 268 -21z"/>
</g>
</svg>
