<?xml version="1.0" standalone="no"?>
<!DOCTYPE svg PUBLIC "-//W3C//DTD SVG 20010904//EN"
 "http://www.w3.org/TR/2001/REC-SVG-20010904/DTD/svg10.dtd">
<svg version="1.0" xmlns="http://www.w3.org/2000/svg"
 width="726.000000pt" height="726.000000pt" viewBox="0 0 726.000000 726.000000"
 preserveAspectRatio="xMidYMid meet">
<metadata>
Created by potrace 1.11, written by Peter Selinger 2001-2013
</metadata>
<g transform="translate(0.000000,726.000000) scale(0.100000,-0.100000)"
fill="#000000" stroke="none">
<path d="M670 6550 l0 -710 1790 0 1790 0 0 -2695 0 -2695 714 0 c562 0 715 3
718 13 2 6 3 1219 2 2695 l-1 2682 449 0 448 0 0 710 0 710 -2955 0 -2955 0 0
-710z"/>
<path d="M1570 2745 l0 -2735 715 0 c393 0 715 3 716 8 1 9 1 5410 0 5440 l-1
22 -715 0 -715 0 0 -2735z"/>
</g>
</svg>
